<svg width="24" height="24" viewBox="0 0 24 24" fill="none" xmlns="http://www.w3.org/2000/svg">
<path d="M20.71 16.1002L19.07 14.4602C18.9264 14.327 18.8281 14.1522 18.7886 13.9604C18.7492 13.7686 18.7706 13.5692 18.85 13.3902C19.1987 12.6412 19.3829 11.8263 19.39 11.0002C19.3947 10.967 19.3947 10.9333 19.39 10.9002C19.3934 9.70356 19.0228 8.53579 18.33 7.56016C16.9911 5.68893 15.2166 4.1719 13.16 3.14016C11.8554 2.50153 10.3845 2.28453 8.95107 2.51926C7.51766 2.75398 6.19275 3.42879 5.16 4.45016L4.49 5.12016C3.45788 6.15683 2.77648 7.49081 2.54151 8.93467C2.30655 10.3785 2.52983 11.8597 3.18 13.1702L3.28 13.3402C2.74634 13.8938 2.44564 14.6312 2.44 15.4002C2.44397 15.9308 2.58861 16.4508 2.85916 16.9073C3.12971 17.3638 3.5165 17.7403 3.98006 17.9986C4.44363 18.2568 4.96739 18.3874 5.49792 18.3772C6.02845 18.3669 6.54677 18.2161 7 17.9402C7.18 18.0802 7.34 18.2302 7.52 18.3602C7.89851 18.6233 8.30833 18.8383 8.74 19.0002H8.83C9.01 19.0702 9.2 19.1302 9.4 19.1902H9.55C9.86121 19.2701 10.1793 19.3203 10.5 19.3402H10.78H10.9H11.12C11.33 19.3402 11.53 19.3402 11.74 19.2802H11.91C12.4017 19.1957 12.8794 19.0443 13.33 18.8302C13.5095 18.7579 13.7062 18.7392 13.8961 18.7765C14.0861 18.8138 14.2611 18.9054 14.4 19.0402L15.86 20.5002C16.4935 21.1359 17.3526 21.4953 18.25 21.5002C19.0028 21.4921 19.7218 21.1865 20.25 20.6502L20.63 20.2702C21.1816 19.7212 21.4983 18.9794 21.5132 18.2013C21.5281 17.4233 21.2401 16.6699 20.71 16.1002ZM5.41 16.4202C5.21222 16.4202 5.01888 16.3615 4.85443 16.2516C4.68998 16.1418 4.56181 15.9856 4.48612 15.8028C4.41044 15.6201 4.39063 15.4191 4.42922 15.2251C4.4678 15.0311 4.56304 14.8529 4.7029 14.7131C4.84275 14.5732 5.02093 14.478 5.21491 14.4394C5.40889 14.4008 5.60996 14.4206 5.79269 14.4963C5.97541 14.572 6.13159 14.7001 6.24147 14.8646C6.35135 15.029 6.41 15.2224 6.41 15.4202C6.41 15.6854 6.30465 15.9397 6.11711 16.1273C5.92957 16.3148 5.67522 16.4202 5.41 16.4202ZM8.51 16.5602L8.25 16.3602C8.35413 16.0576 8.40817 15.7401 8.41 15.4202C8.41 14.6245 8.09393 13.8615 7.53132 13.2988C6.96871 12.7362 6.20565 12.4202 5.41 12.4202C5.28 12.4202 5.16 12.4202 5.03 12.4202L4.94 12.2602C4.47488 11.3247 4.31446 10.2671 4.48126 9.23576C4.64806 8.20445 5.13371 7.2513 5.87 6.51016L6.54 5.84016C7.29066 5.12071 8.24693 4.65317 9.27573 4.50261C10.3045 4.35206 11.3547 4.52598 12.28 5.00016C13.9598 5.84038 15.419 7.06318 16.54 8.57016L8.51 16.5602ZM19.29 18.9302L18.92 19.3102C18.5 19.7302 17.85 19.6502 17.31 19.1102L15.85 17.6602C15.4201 17.233 14.8708 16.9461 14.2746 16.8372C13.6784 16.7283 13.0632 16.8026 12.51 17.0502C12.1947 17.2047 11.8574 17.3092 11.51 17.3602C11.3189 17.3967 11.1245 17.4134 10.93 17.4102H10.59H10.49L17.36 10.5402C17.43 11.2253 17.3125 11.9166 17.02 12.5402C16.7724 13.0933 16.6982 13.7086 16.807 14.3048C16.9159 14.901 17.2028 15.4502 17.63 15.8802L19.27 17.5302C19.4559 17.7145 19.5622 17.9643 19.5659 18.2261C19.5696 18.4878 19.4706 18.7406 19.29 18.9302Z" fill="#1B1B1B"/>
</svg>
